<mxfile host="Electron" agent="Mozilla/5.0 (Windows NT 10.0; Win64; x64) AppleWebKit/537.36 (KHTML, like Gecko) draw.io/24.7.17 Chrome/128.0.6613.36 Electron/32.0.1 Safari/537.36" version="24.7.17">
  <diagram name="Page-1" id="3jsGgMJp_sYMduL0Lu1A">
    <mxGraphModel dx="1430" dy="589" grid="1" gridSize="10" guides="1" tooltips="1" connect="1" arrows="1" fold="1" page="1" pageScale="1" pageWidth="827" pageHeight="1169" math="0" shadow="0">
      <root>
        <mxCell id="0" />
        <mxCell id="1" parent="0" />
        <mxCell id="G4Mz_mc5XYpfuBMIMKEc-5" value="" style="rounded=0;whiteSpace=wrap;html=1;fillColor=none;dashed=1;" vertex="1" parent="1">
          <mxGeometry x="120" y="130" width="690" height="430" as="geometry" />
        </mxCell>
        <mxCell id="G4Mz_mc5XYpfuBMIMKEc-2" value="Modular Monolith Instance" style="image;aspect=fixed;html=1;points=[];align=center;fontSize=12;image=img/lib/azure2/other/Worker_Container_App.svg;" vertex="1" parent="1">
          <mxGeometry x="431" y="330" width="68" height="66" as="geometry" />
        </mxCell>
        <mxCell id="G4Mz_mc5XYpfuBMIMKEc-3" value="Weekly notification Worker" style="image;aspect=fixed;html=1;points=[];align=center;fontSize=12;image=img/lib/azure2/compute/Function_Apps.svg;" vertex="1" parent="1">
          <mxGeometry x="210" y="184" width="68" height="60" as="geometry" />
        </mxCell>
        <mxCell id="G4Mz_mc5XYpfuBMIMKEc-4" value="Azure SQL (Serveless)" style="image;aspect=fixed;html=1;points=[];align=center;fontSize=12;image=img/lib/azure2/databases/Azure_Database_PostgreSQL_Server.svg;" vertex="1" parent="1">
          <mxGeometry x="720" y="180" width="48" height="64" as="geometry" />
        </mxCell>
        <mxCell id="G4Mz_mc5XYpfuBMIMKEc-6" value="&lt;font style=&quot;font-size: 17px;&quot;&gt;Azure Infrastructure Cloud&lt;/font&gt;" style="text;html=1;align=center;verticalAlign=middle;resizable=0;points=[];autosize=1;strokeColor=none;fillColor=none;" vertex="1" parent="1">
          <mxGeometry x="120" y="530" width="220" height="30" as="geometry" />
        </mxCell>
        <mxCell id="G4Mz_mc5XYpfuBMIMKEc-7" value="" style="endArrow=classic;startArrow=classic;html=1;rounded=0;" edge="1" parent="1" source="G4Mz_mc5XYpfuBMIMKEc-2" target="G4Mz_mc5XYpfuBMIMKEc-4">
          <mxGeometry width="50" height="50" relative="1" as="geometry">
            <mxPoint x="540" y="340" as="sourcePoint" />
            <mxPoint x="590" y="290" as="targetPoint" />
          </mxGeometry>
        </mxCell>
        <mxCell id="G4Mz_mc5XYpfuBMIMKEc-8" value="" style="endArrow=classic;startArrow=classic;html=1;rounded=0;" edge="1" parent="1" source="G4Mz_mc5XYpfuBMIMKEc-3" target="G4Mz_mc5XYpfuBMIMKEc-4">
          <mxGeometry width="50" height="50" relative="1" as="geometry">
            <mxPoint x="490" y="250" as="sourcePoint" />
            <mxPoint x="540" y="200" as="targetPoint" />
          </mxGeometry>
        </mxCell>
      </root>
    </mxGraphModel>
  </diagram>
</mxfile>
